<?xml version="1.0" standalone="no"?>
<svg xmlns="http://www.w3.org/2000/svg" viewBox="0 0 1440 320">
 <defs>

   <linearGradient id="linear" x1="0%" y1="0%" x2="100%" y2="0%">
     <stop offset="0%"   stop-color="rgba(55,6,23,1)"/>
     <stop offset="50%"  stop-color="rgba(208,0,0,1)"/>
     <stop offset="85%" stop-color="rgba(71,84,255,1)"/>
   </linearGradient>
 </defs>
<path fill="url(#linear)" fill-opacity="1" d="M0,160L16,144C32,128,64,96,96,117.3C128,139,160,213,192,229.3C224,245,256,203,288,170.7C320,139,352,117,384,90.7C416,64,448,32,480,26.7C512,21,544,43,576,90.7C608,139,640,213,672,224C704,235,736,181,768,176C800,171,832,213,864,240C896,267,928,277,960,261.3C992,245,1024,203,1056,160C1088,117,1120,75,1152,64C1184,53,1216,75,1248,74.7C1280,75,1312,53,1344,53.3C1376,53,1408,75,1424,85.3L1440,96L1440,0L1424,0C1408,0,1376,0,1344,0C1312,0,1280,0,1248,0C1216,0,1184,0,1152,0C1120,0,1088,0,1056,0C1024,0,992,0,960,0C928,0,896,0,864,0C832,0,800,0,768,0C736,0,704,0,672,0C640,0,608,0,576,0C544,0,512,0,480,0C448,0,416,0,384,0C352,0,320,0,288,0C256,0,224,0,192,0C160,0,128,0,96,0C64,0,32,0,16,0L0,0Z"></path></svg>